#Comment line ignore any data following # character 
#Hierarchical Translation and Rotation (.htr) file 
[Header]	
#Header keywords are followed by a single value 
FileType HTR		#Single word string
DataType HTRS		#Translation followed by rotation and scale data
FileVersion 1		#integer
NumSegments 84		#integer
NumFrames 2		#integer
DataFrameRate 30		#integer, data frame rate in this file
EulerRotationOrder ZYX
CalibrationUnits mm
RotationUnits Degrees
GlobalAxisofGravity Y
BoneLengthAxis Y
ScaleFactor 1.00
[SegmentNames&Hierarchy]
#CHILD	PARENT
MASTER GLOBAL
root MASTER
chest root
L_mid_tent01 root
R_mid_tent01 root
spine01 root
Bip01_Neck chest
L_humerus chest
R_humerus chest
weapon_bone chest
Bip01_Head Bip01_Neck
eye_left_bone Bip01_Head
eye_right_bone Bip01_Head
L_forearm L_humerus
L_front_hand L_forearm
L_weapon_bone L_forearm
L_front_hand01_01 L_front_hand
L_front_hand02_01 L_front_hand
L_front_hand03_01 L_front_hand
L_front_hand01_02 L_front_hand01_01
L_front_hand02_02 L_front_hand02_01
L_front_hand03_02 L_front_hand03_01
R_forearm R_humerus
R_front_hand R_forearm
R_weapon_bone R_forearm
R_front_hand01_01 R_front_hand
R_front_hand02_01 R_front_hand
R_front_hand03_01 R_front_hand
R_front_hand01_02 R_front_hand01_01
R_front_hand02_02 R_front_hand02_01
R_front_hand03_02 R_front_hand03_01
null_rope01_connect L_mid_tent01
Rope1_Seg01 null_rope01_connect
Rope1_Seg02 Rope1_Seg01
Rope1_Seg03 Rope1_Seg02
Rope1_Seg04 Rope1_Seg03
Rope1_Seg05 Rope1_Seg04
Rope1_Seg06 Rope1_Seg05
Rope1_Seg07 Rope1_Seg06
Rope1_Seg09 Rope1_Seg07
L_mid_hand01 Rope1_Seg09
L_mid_hand02 Rope1_Seg09
L_mid_hand03 Rope1_Seg09
null_rope02_connect R_mid_tent01
Rope2_Seg01 null_rope02_connect
Rope2_Seg02 Rope2_Seg01
Rope2_Seg03 Rope2_Seg02
Rope2_Seg04 Rope2_Seg03
Rope2_Seg05 Rope2_Seg04
Rope2_Seg06 Rope2_Seg05
Rope2_Seg07 Rope2_Seg06
Rope2_Seg09 Rope2_Seg07
R_mid_hand01 Rope2_Seg09
R_mid_hand02 Rope2_Seg09
R_mid_hand03 Rope2_Seg09
spine02 spine01
spine03 spine02
pelvis spine03
null_rope03_connect pelvis
null_rope04_connect pelvis
Rope3_Seg01 null_rope03_connect
Rope3_Seg02 Rope3_Seg01
Rope3_Seg03 Rope3_Seg02
Rope3_Seg04 Rope3_Seg03
Rope3_Seg05 Rope3_Seg04
Rope3_Seg06 Rope3_Seg05
Rope3_Seg07 Rope3_Seg06
Rope3_Seg08 Rope3_Seg07
Rope3_Seg09 Rope3_Seg08
R_rear_hand01 Rope3_Seg09
R_rear_hand02 Rope3_Seg09
R_rear_hand03 Rope3_Seg09
Rope4_Seg01 null_rope04_connect
Rope4_Seg02 Rope4_Seg01
Rope4_Seg03 Rope4_Seg02
Rope4_Seg04 Rope4_Seg03
Rope4_Seg05 Rope4_Seg04
Rope4_Seg06 Rope4_Seg05
Rope4_Seg07 Rope4_Seg06
Rope4_Seg08 Rope4_Seg07
Rope4_Seg09 Rope4_Seg08
L_rear_hand01 Rope4_Seg09
L_rear_hand02 Rope4_Seg09
L_rear_hand03 Rope4_Seg09
[BasePosition]
#SegmentName Tx, Ty, Tz, Rx, Ry, Rz, BoneLength
MASTER 0.000000 0.000000 0.000000 -90.000000 0.000000 0.000000 10.000000 
root 0.000000 0.000000 0.000000 0.000000 0.000000 0.000000 10.000000 
chest 0.000000 0.000000 0.000000 0.000000 0.000000 0.000000 10.000000 
L_mid_tent01 0.000000 0.000000 0.000000 0.000000 0.000000 0.000000 10.000000 
R_mid_tent01 0.000000 0.000000 0.000000 0.000000 0.000000 0.000000 10.000000 
spine01 0.000000 0.000000 0.000000 0.000000 0.000000 0.000000 10.000000 
Bip01_Neck 0.000000 0.000000 0.000000 0.000000 0.000000 0.000000 10.000000 
L_humerus 0.000000 0.000000 0.000000 0.000000 0.000000 0.000000 10.000000 
R_humerus 0.000000 0.000000 0.000000 0.000000 0.000000 0.000000 10.000000 
weapon_bone 0.000000 0.000000 0.000000 0.000000 0.000000 0.000000 10.000000 
Bip01_Head 0.000000 0.000000 0.000000 0.000000 0.000000 0.000000 10.000000 
eye_left_bone 0.000000 0.000000 0.000000 0.000000 0.000000 0.000000 10.000000 
eye_right_bone 0.000000 0.000000 0.000000 0.000000 0.000000 0.000000 10.000000 
L_forearm 0.000000 0.000000 0.000000 0.000000 0.000000 0.000000 10.000000 
L_front_hand 0.000000 0.000000 0.000000 0.000000 0.000000 0.000000 10.000000 
L_weapon_bone 0.000000 0.000000 0.000000 0.000000 0.000000 0.000000 10.000000 
L_front_hand01_01 0.000000 0.000000 0.000000 0.000000 0.000000 0.000000 10.000000 
L_front_hand02_01 0.000000 0.000000 0.000000 0.000000 0.000000 0.000000 10.000000 
L_front_hand03_01 0.000000 0.000000 0.000000 0.000000 0.000000 0.000000 10.000000 
L_front_hand01_02 0.000000 0.000000 0.000000 0.000000 0.000000 0.000000 10.000000 
L_front_hand02_02 0.000000 0.000000 0.000000 0.000000 0.000000 0.000000 10.000000 
L_front_hand03_02 0.000000 0.000000 0.000000 0.000000 0.000000 0.000000 10.000000 
R_forearm 0.000000 0.000000 0.000000 0.000000 0.000000 0.000000 10.000000 
R_front_hand 0.000000 0.000000 0.000000 0.000000 0.000000 0.000000 10.000000 
R_weapon_bone 0.000000 0.000000 0.000000 0.000000 0.000000 0.000000 10.000000 
R_front_hand01_01 0.000000 0.000000 0.000000 0.000000 0.000000 0.000000 10.000000 
R_front_hand02_01 0.000000 0.000000 0.000000 0.000000 0.000000 0.000000 10.000000 
R_front_hand03_01 0.000000 0.000000 0.000000 0.000000 0.000000 0.000000 10.000000 
R_front_hand01_02 0.000000 0.000000 0.000000 0.000000 0.000000 0.000000 10.000000 
R_front_hand02_02 0.000000 0.000000 0.000000 0.000000 0.000000 0.000000 10.000000 
R_front_hand03_02 0.000000 0.000000 0.000000 0.000000 0.000000 0.000000 10.000000 
null_rope01_connect 0.000000 0.000000 0.000000 0.000000 0.000000 0.000000 10.000000 
Rope1_Seg01 0.000000 0.000000 0.000000 0.000000 0.000000 0.000000 10.000000 
Rope1_Seg02 0.000000 0.000000 0.000000 0.000000 0.000000 0.000000 10.000000 
Rope1_Seg03 0.000000 0.000000 0.000000 0.000000 0.000000 0.000000 10.000000 
Rope1_Seg04 0.000000 0.000000 0.000000 0.000000 0.000000 0.000000 10.000000 
Rope1_Seg05 0.000000 0.000000 0.000000 0.000000 0.000000 0.000000 10.000000 
Rope1_Seg06 0.000000 0.000000 0.000000 0.000000 0.000000 0.000000 10.000000 
Rope1_Seg07 0.000000 0.000000 0.000000 0.000000 0.000000 0.000000 10.000000 
Rope1_Seg09 0.000000 0.000000 0.000000 0.000000 0.000000 0.000000 10.000000 
L_mid_hand01 0.000000 0.000000 0.000000 0.000000 0.000000 0.000000 10.000000 
L_mid_hand02 0.000000 0.000000 0.000000 0.000000 0.000000 0.000000 10.000000 
L_mid_hand03 0.000000 0.000000 0.000000 0.000000 0.000000 0.000000 10.000000 
null_rope02_connect 0.000000 0.000000 0.000000 0.000000 0.000000 0.000000 10.000000 
Rope2_Seg01 0.000000 0.000000 0.000000 0.000000 0.000000 0.000000 10.000000 
Rope2_Seg02 0.000000 0.000000 0.000000 0.000000 0.000000 0.000000 10.000000 
Rope2_Seg03 0.000000 0.000000 0.000000 0.000000 0.000000 0.000000 10.000000 
Rope2_Seg04 0.000000 0.000000 0.000000 0.000000 0.000000 0.000000 10.000000 
Rope2_Seg05 0.000000 0.000000 0.000000 0.000000 0.000000 0.000000 10.000000 
Rope2_Seg06 0.000000 0.000000 0.000000 0.000000 0.000000 0.000000 10.000000 
Rope2_Seg07 0.000000 0.000000 0.000000 0.000000 0.000000 0.000000 10.000000 
Rope2_Seg09 0.000000 0.000000 0.000000 0.000000 0.000000 0.000000 10.000000 
R_mid_hand01 0.000000 0.000000 0.000000 0.000000 0.000000 0.000000 10.000000 
R_mid_hand02 0.000000 0.000000 0.000000 0.000000 0.000000 0.000000 10.000000 
R_mid_hand03 0.000000 0.000000 0.000000 0.000000 0.000000 0.000000 10.000000 
spine02 0.000000 0.000000 0.000000 0.000000 0.000000 0.000000 10.000000 
spine03 0.000000 0.000000 0.000000 0.000000 0.000000 0.000000 10.000000 
pelvis 0.000000 0.000000 0.000000 0.000000 0.000000 0.000000 10.000000 
null_rope03_connect 0.000000 0.000000 0.000000 0.000000 0.000000 0.000000 10.000000 
null_rope04_connect 0.000000 0.000000 0.000000 0.000000 0.000000 0.000000 10.000000 
Rope3_Seg01 0.000000 0.000000 0.000000 0.000000 0.000000 0.000000 10.000000 
Rope3_Seg02 0.000000 0.000000 0.000000 0.000000 0.000000 0.000000 10.000000 
Rope3_Seg03 0.000000 0.000000 0.000000 0.000000 0.000000 0.000000 10.000000 
Rope3_Seg04 0.000000 0.000000 0.000000 0.000000 0.000000 0.000000 10.000000 
Rope3_Seg05 0.000000 0.000000 0.000000 0.000000 0.000000 0.000000 10.000000 
Rope3_Seg06 0.000000 0.000000 0.000000 0.000000 0.000000 0.000000 10.000000 
Rope3_Seg07 0.000000 0.000000 0.000000 0.000000 0.000000 0.000000 10.000000 
Rope3_Seg08 0.000000 0.000000 0.000000 0.000000 0.000000 0.000000 10.000000 
Rope3_Seg09 0.000000 0.000000 0.000000 0.000000 0.000000 0.000000 10.000000 
R_rear_hand01 0.000000 0.000000 0.000000 0.000000 0.000000 0.000000 10.000000 
R_rear_hand02 0.000000 0.000000 0.000000 0.000000 0.000000 0.000000 10.000000 
R_rear_hand03 0.000000 0.000000 0.000000 0.000000 0.000000 0.000000 10.000000 
Rope4_Seg01 0.000000 0.000000 0.000000 0.000000 0.000000 0.000000 10.000000 
Rope4_Seg02 0.000000 0.000000 0.000000 0.000000 0.000000 0.000000 10.000000 
Rope4_Seg03 0.000000 0.000000 0.000000 0.000000 0.000000 0.000000 10.000000 
Rope4_Seg04 0.000000 0.000000 0.000000 0.000000 0.000000 0.000000 10.000000 
Rope4_Seg05 0.000000 0.000000 0.000000 0.000000 0.000000 0.000000 10.000000 
Rope4_Seg06 0.000000 0.000000 0.000000 0.000000 0.000000 0.000000 10.000000 
Rope4_Seg07 0.000000 0.000000 0.000000 0.000000 0.000000 0.000000 10.000000 
Rope4_Seg08 0.000000 0.000000 0.000000 0.000000 0.000000 0.000000 10.000000 
Rope4_Seg09 0.000000 0.000000 0.000000 0.000000 0.000000 0.000000 10.000000 
L_rear_hand01 0.000000 0.000000 0.000000 0.000000 0.000000 0.000000 10.000000 
L_rear_hand02 0.000000 0.000000 0.000000 0.000000 0.000000 0.000000 10.000000 
L_rear_hand03 0.000000 0.000000 0.000000 0.000000 0.000000 0.000000 10.000000 
#Beginning of Data. Separated by tabs
#Fr	Tx	Ty	Tz	Rx	Ry	Rz	SF
[MASTER]
4 -59.314999 403.717529 -37.709259 0.001660 0.001660 0.001660 409.790283
5 -78.595581 548.711792 -24.824953 0.001660 0.001660 0.001660 554.867676
[root]
4 6.964936 -65.615921 1466.557373 -85.831192 16.509327 -96.184311 1468.041016
5 34.925076 -48.263966 1420.364624 -83.585167 24.097294 -98.749268 1421.613403
[chest]
4 -84.512650 -34.090519 0.000000 0.330555 2.193132 163.879959 91.129311
5 -84.512650 -34.090519 0.000000 1.335009 3.179370 162.330612 91.129311
[L_mid_tent01]
4 27.299047 22.179096 -249.918701 0.688135 4.196842 71.327698 252.381683
5 27.299038 22.179092 -249.918701 0.144508 8.492355 70.418304 252.381668
[R_mid_tent01]
4 23.228794 24.509907 226.238495 166.717987 -19.206221 74.987061 228.744751
5 23.228794 24.509907 226.238495 167.538315 -21.049809 71.927292 228.744751
[spine01]
4 -0.361383 -0.195265 0.000000 -0.000001 -0.000007 22.052340 0.410763
5 -0.361383 -0.195265 0.000000 -0.000001 -0.000007 22.052340 0.410763
[Bip01_Neck]
4 165.484543 71.581718 0.000119 176.643677 -1.657967 43.431911 180.302734
5 165.484543 71.581718 0.000119 176.643677 -1.657967 43.431911 180.302734
[L_humerus]
4 -13.983130 -135.272980 -120.471481 -2.424988 69.717400 87.554886 181.680161
5 -13.983130 -135.272980 -120.471481 -0.250025 70.965065 89.729507 181.680161
[R_humerus]
4 -13.983309 -135.273102 125.287651 30.790787 -76.343391 64.697380 184.909012
5 -13.983309 -135.273102 125.287651 35.516922 -80.610077 59.872765 184.909012
[weapon_bone]
4 235.964890 -300.705902 0.000000 0.000000 -89.951546 -128.212341 382.234833
5 235.964890 -300.705902 0.000000 0.000000 -89.951546 -128.212341 382.234833
[Bip01_Head]
4 213.432922 185.747147 11.366806 4.962491 2.797846 -43.898743 283.169250
5 213.470291 185.642349 12.720032 4.962490 2.797846 -43.898743 283.186249
[eye_left_bone]
4 -24.626970 125.451866 -64.772606 0.000000 -90.000000 -99.840431 143.318359
5 -24.626970 125.451866 -64.772606 0.000000 -90.000000 -99.840431 143.318359
[eye_right_bone]
4 -24.626970 125.451866 64.327362 0.000000 -89.965736 80.156380 143.117676
5 -24.626970 125.451866 64.327362 0.000000 -89.965736 80.156380 143.117676
[L_forearm]
4 322.776093 0.000000 -0.000119 0.000398 -0.002313 -109.502754 322.776093
5 322.776093 0.000000 -0.000119 0.000398 -0.002313 -109.549179 322.776093
[L_front_hand]
4 241.149185 -0.042021 -3.300071 -174.888504 -1.836994 -27.422298 241.171753
5 241.149185 -0.042021 -3.300071 -172.906158 -1.834232 -27.423603 241.171753
[L_weapon_bone]
4 156.183838 0.000000 0.000000 0.000014 0.000007 0.000001 156.183838
5 156.183838 0.000000 0.000000 0.000014 0.000007 0.000001 156.183838
[L_front_hand01_01]
4 86.095154 20.947098 -0.655860 -0.364720 -0.478588 74.936234 88.609184
5 86.095154 20.947098 -0.655860 -0.351864 -0.488251 73.756912 88.609184
[L_front_hand02_01]
4 86.935165 -11.437475 24.513514 153.708527 -59.690228 -60.568150 91.046425
5 86.935165 -11.437475 24.513514 151.937775 -59.151119 -58.507736 91.046425
[L_front_hand03_01]
4 86.637497 -14.123976 -20.424902 -153.279221 57.922546 -61.955151 90.126129
5 86.637497 -14.123976 -20.424902 -151.626480 57.374607 -59.999687 90.126129
[L_front_hand01_02]
4 71.020905 -0.000179 0.000030 0.000324 -0.002325 -105.888367 71.020905
5 71.020905 -0.000179 0.000030 0.000323 -0.002325 -105.840057 71.020905
[L_front_hand02_02]
4 71.020927 -0.000119 0.000060 0.000324 -0.002325 -105.888367 71.020927
5 71.020927 -0.000119 0.000060 0.000323 -0.002325 -105.840057 71.020927
[L_front_hand03_02]
4 71.020905 -0.000060 0.000060 0.000324 -0.002325 -105.888367 71.020905
5 71.020905 -0.000060 0.000060 0.000323 -0.002325 -105.840057 71.020905
[R_forearm]
4 322.776428 -0.000060 0.000030 0.202047 0.065330 -108.160553 322.776428
5 322.776428 -0.000060 0.000030 0.202016 0.065427 -108.215508 322.776428
[R_front_hand]
4 238.847015 -0.006795 2.210259 -6.411758 -10.643534 -26.312113 238.857239
5 238.847015 -0.006795 2.210259 -8.392500 -10.643429 -26.316034 238.857239
[R_weapon_bone]
4 155.664093 0.002503 -0.000030 0.003487 0.001180 -90.988930 155.664078
5 155.664093 0.002503 -0.000030 0.003487 0.001180 -90.988930 155.664078
[R_front_hand01_01]
4 87.624611 14.231146 22.918642 -153.951385 -59.756760 60.953682 91.683487
5 87.624611 14.231146 22.918642 -152.176025 -59.222912 58.891888 91.683487
[R_front_hand02_01]
4 89.356956 14.367283 -19.491137 153.963715 58.112652 62.995510 92.579636
5 89.356956 14.367283 -19.491137 152.293427 57.581059 61.021759 92.579636
[R_front_hand03_01]
4 87.286232 -22.307278 -0.143439 0.156617 -0.426811 -75.329918 90.091743
5 87.286232 -22.307278 -0.143439 0.152228 -0.428396 -74.153709 90.091743
[R_front_hand01_02]
4 71.020905 0.000060 0.000119 0.002328 -0.000303 104.822876 71.020905
5 71.020905 0.000060 0.000119 0.002328 -0.000300 104.710541 71.020905
[R_front_hand02_02]
4 71.020844 -0.000030 -0.000119 0.002328 -0.000303 104.822876 71.020836
5 71.020844 -0.000030 -0.000119 0.002328 -0.000300 104.710541 71.020836
[R_front_hand03_02]
4 71.020905 0.000000 0.000030 0.002328 -0.000303 104.822876 71.020905
5 71.020905 0.000000 0.000030 0.002328 -0.000300 104.710541 71.020905
[null_rope01_connect]
4 328.732483 0.000000 -0.000238 -91.198013 -81.785782 93.309959 328.732483
5 328.732483 0.000000 -0.000238 -103.706291 -78.856873 98.832436 328.732483
[Rope1_Seg01]
4 0.000033 -0.000114 0.000010 15.393674 -5.533364 -133.484772 0.000119
5 0.000032 -0.000139 0.000013 8.384763 1.544121 -143.685760 0.000143
[Rope1_Seg02]
4 139.999863 -0.000179 0.000000 1.171273 3.265470 -2.721225 139.999863
5 139.999863 -0.000179 0.000000 -0.462018 4.605385 -5.488440 139.999863
[Rope1_Seg03]
4 139.999924 0.000060 -0.000060 1.137368 5.211238 -4.547338 139.999924
5 139.999924 0.000060 -0.000060 -2.100579 8.616971 -12.103349 139.999924
[Rope1_Seg04]
4 139.999924 -0.000060 -0.000119 -4.415211 8.875975 -15.346175 139.999924
5 139.999924 -0.000060 -0.000119 -6.520432 14.883183 -30.779118 139.999924
[Rope1_Seg05]
4 139.999832 0.000119 -0.000060 -0.710312 22.273455 -16.902735 139.999832
5 139.999832 0.000119 -0.000060 6.646998 46.052441 29.292349 139.999832
[Rope1_Seg06]
4 139.999954 0.000119 -0.000060 20.052334 27.959778 37.421043 139.999954
5 139.999954 0.000119 -0.000060 -2.838263 27.278763 22.568596 139.999954
[Rope1_Seg07]
4 139.999985 0.000060 0.000000 4.330734 14.179222 8.706683 139.999985
5 139.999985 0.000060 0.000000 -1.910383 7.452309 5.996902 139.999985
[Rope1_Seg09]
4 121.602913 0.000119 -0.000089 -89.793175 -1.359789 0.847147 121.602913
5 121.602913 0.000119 -0.000089 -89.793175 -1.359789 0.847147 121.602913
[L_mid_hand01]
4 103.859421 1.038730 8.195221 122.214584 -62.281197 -29.682938 104.187431
5 103.859421 1.038730 8.195221 118.511871 -58.710987 -25.432119 104.187431
[L_mid_hand02]
4 105.572853 -4.139662 -10.864139 -163.055786 41.815422 -64.846161 106.211075
5 105.572853 -4.139662 -10.864139 -159.626373 40.490181 -59.638344 106.211075
[L_mid_hand03]
4 104.641464 17.579376 -3.913581 -8.059160 17.002192 68.062866 106.179977
5 104.641464 17.579376 -3.913581 -9.285491 16.381809 63.801434 106.179977
[null_rope02_connect]
4 328.732849 0.000179 -0.000119 -164.976715 66.212509 12.334311 328.732849
5 328.732849 0.000179 -0.000119 -179.743484 62.428734 0.741451 328.732849
[Rope2_Seg01]
4 0.000041 0.000143 0.000000 29.149225 23.229923 -39.084499 0.000149
5 0.000041 0.000140 0.000000 64.380363 32.504482 -5.419834 0.000146
[Rope2_Seg02]
4 139.999741 -0.000060 -0.000119 0.271291 21.149359 -7.187267 139.999756
5 139.999741 -0.000060 -0.000119 1.024071 20.683620 -3.436898 139.999756
[Rope2_Seg03]
4 140.000107 0.000030 0.000000 -12.751878 52.435703 -25.001757 140.000107
5 140.000107 0.000030 0.000000 -4.838802 31.505341 -18.450171 140.000107
[Rope2_Seg04]
4 139.999802 0.000000 -0.000060 -126.333054 70.074203 -19.317583 139.999802
5 139.999802 0.000000 -0.000060 -37.427269 50.697468 24.574942 139.999802
[Rope2_Seg05]
4 139.999985 -0.000060 0.000119 -19.653175 -3.362840 12.870165 139.999985
5 139.999985 -0.000060 0.000119 -20.214581 4.271862 18.212996 139.999985
[Rope2_Seg06]
4 139.999893 -0.000030 -0.000119 -3.182506 -2.090250 3.093464 139.999893
5 139.999893 -0.000030 -0.000119 -4.852255 -0.110721 5.413900 139.999893
[Rope2_Seg07]
4 139.999893 0.000060 -0.000060 -0.449641 -0.328005 0.433227 139.999893
5 139.999893 0.000060 -0.000060 -2.355973 -0.300593 2.867357 139.999893
[Rope2_Seg09]
4 121.338966 0.000089 -0.000060 33.793236 -1.359788 -0.847141 121.338966
5 121.338966 0.000089 -0.000060 33.793236 -1.359788 -0.847141 121.338966
[R_mid_hand01]
4 104.680779 11.144459 -10.335981 -19.035425 44.336292 66.455589 105.778534
5 104.680779 11.144459 -10.335981 -20.898426 43.633060 63.773407 105.778534
[R_mid_hand02]
4 104.070427 2.443552 8.231699 53.394081 -65.425781 34.575901 104.424065
5 104.070427 2.443552 8.231699 55.882156 -63.749565 31.819658 104.424065
[R_mid_hand03]
4 106.028137 -11.221827 -5.996406 -176.276184 15.379540 -73.491829 106.788818
5 106.028137 -11.221827 -5.996406 -175.717163 15.237030 -71.372292 106.788818
[spine02]
4 129.756927 0.001550 0.000119 0.429536 -4.037336 -13.909061 129.756927
5 129.756927 0.001550 0.000119 0.448869 -4.035094 -14.178986 129.756927
[spine03]
4 78.614021 0.081635 -4.899003 1.937824 3.810491 17.084372 78.766556
5 78.614014 0.081635 -4.899003 1.950785 3.803873 17.264841 78.766556
[pelvis]
4 169.435242 0.051022 0.000000 -0.062438 -0.179551 15.344599 169.435257
5 169.435242 0.051022 0.000000 -0.062969 -0.179366 15.684011 169.435257
[null_rope03_connect]
4 -1.257226 -2.466202 137.391083 -56.892162 -80.637291 90.087242 137.418976
5 -1.257226 -2.466202 137.391083 -59.877625 -76.167229 85.488266 137.418976
[null_rope04_connect]
4 -1.259640 -2.480268 -137.844437 -56.892162 -80.637291 90.087242 137.872513
5 -1.259640 -2.480268 -137.844437 -59.877625 -76.167229 85.488266 137.872513
[Rope3_Seg01]
4 0.000071 -0.000075 0.000000 9.120163 29.933260 -97.484764 0.000103
5 0.000070 -0.000087 0.000000 9.673466 26.010349 -97.519798 0.000111
[Rope3_Seg02]
4 139.999924 -0.000119 0.000060 0.454504 11.766306 6.321216 139.999924
5 139.999924 -0.000119 0.000060 1.543473 20.123791 9.039882 139.999924
[Rope3_Seg03]
4 139.999924 -0.000119 0.000119 2.185804 12.483390 9.990699 139.999924
5 139.999924 -0.000119 0.000119 7.729319 22.621643 14.415851 139.999924
[Rope3_Seg04]
4 139.999924 0.000119 0.000000 2.904480 9.332263 2.239258 139.999924
5 139.999924 0.000119 0.000000 6.322634 10.226421 -1.207427 139.999924
[Rope3_Seg05]
4 139.999924 -0.000238 0.000060 2.602766 1.650872 -9.634733 139.999924
5 139.999924 -0.000238 0.000060 2.677102 -1.820719 -10.196876 139.999924
[Rope3_Seg06]
4 139.999893 -0.000119 -0.000060 1.407466 1.264500 -4.480203 139.999893
5 139.999893 -0.000119 -0.000060 1.700005 0.497750 -4.409072 139.999893
[Rope3_Seg07]
4 139.999771 0.000060 -0.000119 1.070806 1.060077 -2.615050 139.999771
5 139.999771 0.000060 -0.000119 1.305751 0.470177 -2.906516 139.999771
[Rope3_Seg08]
4 139.999985 -0.000060 0.000000 0.858130 0.632357 -1.655485 139.999985
5 139.999985 -0.000060 0.000000 0.996725 0.255148 -1.845959 139.999985
[Rope3_Seg09]
4 90.185997 -0.000179 -0.000060 89.793228 -1.359877 -0.847183 90.185997
5 90.185997 -0.000179 -0.000060 89.793228 -1.359877 -0.847183 90.185997
[R_rear_hand01]
4 103.366196 -6.073594 -10.757982 -176.027405 24.361643 -69.845345 104.101845
5 103.366196 -6.073594 -10.757982 -174.893967 24.166164 -67.090828 104.101845
[R_rear_hand02]
4 100.509819 12.039542 -7.992327 -15.526566 35.959644 67.697319 101.543350
5 100.509819 12.039542 -7.992327 -17.255272 35.248016 64.724976 101.543350
[R_rear_hand03]
4 101.539970 5.215704 5.435467 74.484848 -68.272499 18.324223 101.819031
5 101.539970 5.215704 5.435467 75.989647 -65.836792 16.686356 101.819031
[Rope4_Seg01]
4 -0.000018 -0.000071 -0.000153 -120.125832 34.892765 -135.516251 0.000169
5 -0.000018 -0.000070 -0.000153 -122.156128 33.896561 -140.028717 0.000169
[Rope4_Seg02]
4 139.999985 0.000060 0.000119 -3.106199 -3.235484 3.297090 139.999985
5 139.999985 0.000060 0.000119 -4.526199 -1.982653 4.947621 139.999985
[Rope4_Seg03]
4 139.999924 0.000000 -0.000238 -3.397828 -4.497058 3.581996 139.999924
5 139.999924 0.000000 -0.000238 -5.660481 -3.811807 5.711586 139.999924
[Rope4_Seg04]
4 139.999985 0.000000 0.000119 -3.159836 -12.744597 1.300536 139.999985
5 139.999985 0.000000 0.000119 -6.122336 -11.157771 4.577087 139.999985
[Rope4_Seg05]
4 139.999802 -0.000060 -0.000119 -2.817307 5.772570 10.340872 139.999802
5 139.999802 -0.000060 -0.000119 -8.427505 8.882943 17.033789 139.999802
[Rope4_Seg06]
4 139.999924 0.000000 0.000060 -2.411924 12.916258 10.802786 139.999924
5 139.999924 0.000000 0.000060 -10.331630 8.189284 12.808129 139.999924
[Rope4_Seg07]
4 139.999802 0.000000 0.000000 -2.813615 3.793324 4.572554 139.999802
5 139.999802 0.000000 0.000000 -7.604786 1.308969 5.701853 139.999802
[Rope4_Seg08]
4 139.999924 0.000000 0.000119 -3.587186 1.895272 2.619844 139.999924
5 139.999924 0.000000 0.000119 -6.524338 0.300057 3.234640 139.999924
[Rope4_Seg09]
4 90.185791 0.000060 0.000060 -135.617828 2.228885 0.850567 90.185791
5 90.185791 0.000060 0.000060 -135.617828 2.228885 0.850567 90.185791
[L_rear_hand01]
4 101.696655 -8.392275 -7.654577 -21.754822 -32.891220 123.292305 102.329041
5 101.696655 -8.392275 -7.654577 -25.776871 -29.993465 130.987762 102.329041
[L_rear_hand02]
4 102.726799 -1.568258 5.773216 78.924988 58.957436 166.614059 102.900848
5 102.726799 -1.568258 5.773216 80.757904 51.892082 168.841858 102.900848
[L_rear_hand03]
4 104.552910 9.721220 -10.420293 -171.809479 -23.347528 -120.557556 105.519653
5 104.552910 9.721220 -10.420293 -168.841812 -22.136347 -128.226929 105.519653
